<svg xmlns="http://www.w3.org/2000/svg" xml:space="preserve" width="143.999" height="80" style="shape-rendering:geometricPrecision;text-rendering:geometricPrecision;image-rendering:optimizeQuality;fill-rule:evenodd;clip-rule:evenodd" viewBox="0 0 3809.98 2116.66"><defs><style>.fil3{fill:#355cca;fill-rule:nonzero}.fil2,.fil5,.fil8,.fil9{fill:#a1baff;fill-rule:nonzero}.fil8,.fil9{fill:#afcdfb}.fil8{fill:#cee1f6}.fil10,.fil4,.fil7{fill:#dce9fb;fill-rule:nonzero}.fil10,.fil4{fill:#f7f8fc}.fil10{fill:#fff}</style></defs><g id="Layer_x0020_1"><path d="M160.88 2116.85s-323.29-528.52 30.53-1100.7c313.93-507.68 809.25-103.99 1089.92-620.58 382.74-704.48 2292.85-429.36 2050.92 654.5-117.06 524.52 531.3 543.58 290.14 1067.89l-3461.51-1.11z" style="fill:#ebf3fa;fill-rule:nonzero"/><path d="M2500.8 1101.38s-61.81 40-70.79 117.81l10.67 1.63s23.9-79.55 59.98-108.98c36.07-29.44.14-10.46.14-10.46z" style="fill:#82b378;fill-rule:nonzero"/><path class="fil2" d="M2204.6 962.44s-61.95 94.09-26.63 208.64l15.94-4.29s-15.47-126.16 16.95-189.61c32.41-63.45-6.26-14.74-6.26-14.74zM1511.16 1021.65s56.49 110.62 3.9 231.86l-16.95-6.63s32.25-136.37 4.41-209.84c-27.84-73.46 8.64-15.39 8.64-15.39z"/><path class="fil3" d="m986.12 1069.04 799.99-478.93c44.11-26.42 99.18-26.42 143.3 0l800.01 478.93v780.59l-1743.3-87.4v-693.19z"/><path class="fil4" d="M1136.18 1970.37h1443.17V723.18H1136.18z"/><path class="fil2" d="M1180.23 777.6c0-8.2 6.64-14.84 14.83-14.84 8.2 0 14.85 6.64 14.85 14.84 0 8.19-6.65 14.83-14.85 14.83-8.19 0-14.83-6.64-14.83-14.83z"/><path class="fil5" d="M2504.74 777.6c0-8.2 6.64-14.84 14.83-14.84 8.2 0 14.85 6.64 14.85 14.84 0 8.19-6.65 14.83-14.85 14.83-8.19 0-14.83-6.64-14.83-14.83z"/><path class="fil5" d="M1195.06 779.21h1324.51v-3.23H1195.06z"/><path class="fil5" d="M1193.45 2096.2h3.22V771.7h-3.22zM2518.48 2096.2h3.22V771.7h-3.22z"/><path style="fill:#5781f2;fill-rule:nonzero" d="M2729.42 1066.89v1043.66H986.12V1066.89l871.64 521.84z"/><path class="fil3" d="m986.12 2110.55 798.47-572.45c43.74-31.36 102.6-31.36 146.34 0l798.49 572.45H986.12z"/><path class="fil2" d="M2123.86 895.97h-526.18c-7.64 0-13.89-6.25-13.89-13.89 0-7.65 6.25-13.9 13.89-13.9h526.18c7.64 0 13.9 6.25 13.9 13.9 0 7.64-6.26 13.89-13.9 13.89zM2259.39 951.7h-797.24c-7.64 0-13.9-6.25-13.9-13.89 0-7.64 6.26-13.89 13.9-13.89h797.24c7.65 0 13.9 6.25 13.9 13.89 0 7.64-6.25 13.89-13.9 13.89zM2156.01 1124.58h-576.84c-5.53 0-10.05-4.52-10.05-10.05 0-5.52 4.52-10.05 10.05-10.05h576.84c5.52 0 10.05 4.53 10.05 10.05 0 5.53-4.53 10.05-10.05 10.05zM1637.09 1177.08h-162.65c-5.52 0-10.05-4.53-10.05-10.06 0-5.52 4.53-10.05 10.05-10.05h162.65c5.53 0 10.05 4.53 10.05 10.05 0 5.53-4.52 10.06-10.05 10.06zM1882.39 1177.08h-196.51c-5.52 0-10.04-4.53-10.04-10.06 0-5.52 4.52-10.05 10.04-10.05h196.51c5.52 0 10.05 4.53 10.05 10.05 0 5.53-4.53 10.06-10.05 10.06zM2260.73 1177.08h-339.7c-5.52 0-10.05-4.53-10.05-10.06 0-5.52 4.53-10.05 10.05-10.05h339.7c5.52 0 10.05 4.53 10.05 10.05 0 5.53-4.53 10.06-10.05 10.06zM1883.68 1238.11h-315.96c-5.53 0-10.04-4.52-10.04-10.06 0-5.52 4.51-10.05 10.04-10.05h315.96c5.52 0 10.05 4.53 10.05 10.05 0 5.54-4.53 10.06-10.05 10.06zM2167.45 1238.11h-248.86c-5.52 0-10.04-4.52-10.04-10.06 0-5.52 4.52-10.05 10.04-10.05h248.86c5.52 0 10.05 4.53 10.05 10.05 0 5.54-4.53 10.06-10.05 10.06z"/><path class="fil7" d="m1624.8 502.34-75.15-165.81 162.37 28.62c1.78.32 3.57.48 5.34.48 10.72 0 20.84-5.63 26.44-15.07L1826.6 211l75.15 165.8-276.95 125.54z"/><path class="fil8" d="M1717.36 365.63c-1.77 0-3.56-.16-5.34-.48l-162.37-28.62L1826.6 211l-82.8 139.56a30.767 30.767 0 0 1-26.44 15.07z"/><path class="fil7" d="m3175.38 870.84-347.73-92.79 55.57-208.17 127.16 147.98a36.477 36.477 0 0 0 27.62 12.68c4.19 0 8.38-.72 12.45-2.2l180.5-65.67-55.57 208.17z"/><path class="fil8" d="M3038 730.54c-10.4 0-20.55-4.48-27.62-12.68l-127.16-147.98 347.73 92.79-180.5 65.67c-4.07 1.48-8.26 2.2-12.45 2.2z"/><path class="fil9" d="M227.54 1601.6c-.83 0-1.54-.65-1.6-1.49-.07-.9.59-1.67 1.48-1.74 14.99-1.15 24.32-1.56 24.41-1.56.89-.07 1.64.67 1.68 1.55.04.9-.66 1.64-1.55 1.68-.09 0-9.37.39-24.29 1.54l-.13.02zm-48.31 4.76c-.8 0-1.5-.58-1.6-1.41-.11-.89.52-1.69 1.41-1.8 7.95-.95 16.08-1.85 24.16-2.65.88-.07 1.67.56 1.76 1.45.09.88-.56 1.68-1.45 1.76-8.05.8-16.16 1.69-24.08 2.65h-.2zm-48.02 6.98c-.77 0-1.45-.54-1.59-1.33a1.61 1.61 0 0 1 1.32-1.86c7.74-1.33 15.81-2.61 24.01-3.8.89-.14 1.7.49 1.83 1.36.12.88-.49 1.71-1.37 1.84-8.17 1.17-16.21 2.45-23.92 3.78l-.28.01zm-47.51 9.81a1.62 1.62 0 0 1-.39-3.19c7.54-1.85 15.53-3.64 23.74-5.32.88-.17 1.73.39 1.9 1.26.18.87-.38 1.72-1.25 1.9a605.85 605.85 0 0 0-23.62 5.3c-.13.03-.26.05-.38.05zm1070.49 2.93c-.75 0-1.44-.54-1.58-1.31-.17-.88.4-1.72 1.27-1.89 1.64-.31 2.58-.49 2.77-.52.95-.22 1.97.55 1.97 1.57 0 1.33-.15 1.36-4.13 2.12l-.3.03zm-47.84 8.97c-.75 0-1.44-.55-1.58-1.32-.15-.87.42-1.71 1.29-1.88 9.11-1.68 17.1-3.17 23.91-4.44.87-.17 1.71.4 1.87 1.29.17.87-.4 1.71-1.29 1.88-6.8 1.27-14.79 2.76-23.9 4.44l-.3.03zm-1069.07 2.09c-.65 0-1.27-.39-1.51-1.05-.31-.83.12-1.76.95-2.08 7.15-2.66 14.92-5.24 23.11-7.7.85-.25 1.75.24 2 1.1.26.85-.23 1.75-1.08 2-8.12 2.43-15.82 4.99-22.9 7.63-.19.07-.38.1-.57.1zm1021.32 6.64c-.77 0-1.44-.54-1.58-1.33-.17-.87.42-1.71 1.29-1.88 8.42-1.51 16.4-2.97 23.87-4.33.89-.17 1.73.42 1.88 1.29.16.88-.42 1.72-1.29 1.88-7.48 1.37-15.46 2.82-23.89 4.35l-.28.02zm-47.75 8.54c-.77 0-1.44-.54-1.58-1.33-.16-.88.41-1.71 1.3-1.86 8.24-1.48 16.2-2.89 23.87-4.25.88-.17 1.72.42 1.87 1.3.15.87-.42 1.71-1.3 1.87-7.67 1.37-15.64 2.79-23.88 4.24l-.28.03zm-1016.8 6.42c-.51 0-1.01-.25-1.33-.7-.51-.73-.33-1.72.4-2.24 6.09-4.25 13.21-8.37 21.16-12.24.8-.39 1.76-.07 2.15.74.39.8.06 1.77-.74 2.15-7.79 3.81-14.76 7.83-20.72 12-.29.19-.61.29-.92.29zm969.03 1.95c-.77 0-1.44-.56-1.58-1.35-.16-.86.43-1.71 1.32-1.86 8.14-1.41 16.1-2.8 23.87-4.16.89-.14 1.71.43 1.87 1.31.15.87-.44 1.72-1.31 1.87-7.76 1.36-15.73 2.75-23.89 4.16l-.28.03zm-47.76 8.19a1.6 1.6 0 0 1-1.59-1.35c-.15-.87.44-1.69 1.32-1.85 8.1-1.37 16.06-2.73 23.89-4.08a1.6 1.6 0 0 1 1.85 1.32c.15.88-.43 1.71-1.32 1.87-7.81 1.34-15.78 2.7-23.89 4.07l-.26.02zm-47.8 8.03c-.78 0-1.46-.56-1.59-1.34-.15-.89.45-1.71 1.32-1.87 8.08-1.33 16.05-2.66 23.91-3.98a1.6 1.6 0 0 1 1.85 1.32c.15.88-.44 1.71-1.32 1.86-7.86 1.32-15.83 2.65-23.91 3.99l-.26.02zm-47.82 7.84c-.78 0-1.46-.56-1.59-1.35-.15-.88.45-1.71 1.33-1.85 8.05-1.3 16.02-2.61 23.91-3.89.88-.16 1.71.44 1.85 1.31.15.89-.45 1.71-1.33 1.87-7.89 1.29-15.86 2.59-23.91 3.9l-.26.01zm-47.85 7.67c-.78 0-1.46-.56-1.59-1.36-.14-.88.46-1.71 1.34-1.85 8.04-1.26 16.01-2.54 23.93-3.8.87-.14 1.7.45 1.84 1.33.14.88-.46 1.71-1.34 1.85-7.91 1.26-15.89 2.54-23.92 3.82l-.26.01zm-806.16 3.79-.32-.03a1.622 1.622 0 0 1-1.26-1.89c1.55-7.7 5.19-15.12 10.81-22.05.56-.68 1.58-.79 2.27-.23s.8 1.58.24 2.27c-5.29 6.52-8.71 13.46-10.16 20.64-.15.77-.82 1.29-1.58 1.29zm758.29 3.67c-.78 0-1.47-.56-1.59-1.36-.14-.89.47-1.71 1.35-1.84 8.02-1.23 16-2.48 23.93-3.71.88-.13 1.71.46 1.84 1.34.14.89-.46 1.71-1.34 1.85-7.93 1.24-15.92 2.47-23.94 3.7l-.25.02zm-47.9 7.26a1.613 1.613 0 0 1-.24-3.21c8.01-1.19 16-2.4 23.95-3.6.89-.13 1.7.48 1.84 1.36.13.88-.48 1.69-1.35 1.83-7.96 1.21-15.95 2.4-23.97 3.59l-.23.03zm-47.94 7.01c-.79 0-1.48-.57-1.6-1.37-.12-.89.49-1.7 1.37-1.84 8.01-1.15 16-2.3 23.97-3.48.88-.14 1.7.48 1.83 1.38.13.87-.48 1.69-1.37 1.82-7.97 1.16-15.96 2.33-23.97 3.48l-.23.01zm-47.97 6.79c-.8 0-1.49-.59-1.6-1.41-.12-.88.49-1.69 1.38-1.8 8-1.11 16-2.23 23.98-3.36.87-.14 1.7.48 1.82 1.37.13.88-.48 1.71-1.37 1.82-7.99 1.13-15.99 2.26-23.99 3.36l-.22.02zm-48.08 6.5c-.8 0-1.49-.6-1.6-1.4-.11-.9.51-1.7 1.39-1.82 8-1.06 16.01-2.12 24.02-3.21.89-.11 1.69.5 1.81 1.38.12.89-.5 1.7-1.38 1.81-8.01 1.1-16.03 2.16-24.03 3.21l-.21.03zm-47.94 6.16c-.8 0-1.49-.59-1.6-1.4-.11-.89.52-1.7 1.41-1.82 7.96-.99 15.94-2 23.94-3.03.88-.1 1.69.51 1.81 1.4.11.88-.51 1.69-1.4 1.8-8 1.03-15.99 2.05-23.95 3.05h-.21zm-48.09 5.84c-.81 0-1.51-.61-1.6-1.43-.11-.88.53-1.68 1.41-1.79 7.99-.94 16-1.89 24.05-2.86.88-.11 1.69.52 1.79 1.4.11.88-.52 1.7-1.4 1.8-8.05.98-16.07 1.93-24.06 2.87l-.19.01zm-455.76.37c-.33 0-.66-.1-.94-.31-4.68-3.41-8.05-7.25-10.03-11.44-1.45-3.07-2.66-6.14-3.59-9.13a1.62 1.62 0 0 1 1.06-2.02c.85-.26 1.76.21 2.02 1.07.89 2.84 2.04 5.77 3.43 8.69 1.74 3.7 4.77 7.14 9.01 10.22.71.53.87 1.54.35 2.26-.32.43-.81.66-1.31.66zm407.61 5.06c-.81 0-1.51-.62-1.6-1.44-.1-.89.55-1.69 1.43-1.78 7.98-.86 16.01-1.76 24.07-2.67.89-.08 1.69.55 1.79 1.43.1.88-.54 1.68-1.43 1.78-8.07.91-16.1 1.79-24.08 2.67l-.18.01zm-48.2 4.93c-.82 0-1.52-.61-1.6-1.44-.09-.9.56-1.68 1.45-1.77 7.97-.77 16.01-1.58 24.1-2.41.88-.07 1.67.55 1.77 1.45.09.88-.56 1.66-1.44 1.76-8.1.83-16.14 1.64-24.12 2.41h-.16zm-48.25 4.39c-.83 0-1.54-.64-1.61-1.48a1.6 1.6 0 0 1 1.47-1.74c7.97-.68 16.01-1.38 24.13-2.12a1.622 1.622 0 0 1 .29 3.23c-8.13.72-16.18 1.44-24.15 2.1l-.13.01zm-265.84 1.49-.28-.03c-8.91-1.6-16.89-3.5-23.73-5.68a1.605 1.605 0 0 1-1.04-2.02c.27-.85 1.18-1.33 2.02-1.05 6.71 2.13 14.55 4.01 23.32 5.58.87.16 1.46 1 1.3 1.87-.14.78-.82 1.33-1.59 1.33zm217.52 2.19c-.84 0-1.55-.65-1.61-1.5-.06-.9.61-1.66 1.5-1.73 7.95-.53 16-1.12 24.16-1.74.88-.07 1.66.61 1.73 1.49.06.88-.6 1.67-1.49 1.74-8.16.61-16.23 1.19-24.18 1.74h-.11zm-48.39 2.77c-.85 0-1.57-.67-1.61-1.53a1.62 1.62 0 0 1 1.54-1.69c7.76-.35 15.9-.79 24.18-1.26.89-.02 1.65.63 1.71 1.52.04.89-.63 1.66-1.52 1.7-8.3.48-16.44.91-24.22 1.26h-.08zm-121.05.37h-.1c-8.53-.52-16.67-1.18-24.18-1.98-.89-.1-1.53-.9-1.44-1.78.1-.88.89-1.53 1.77-1.43 7.48.8 15.57 1.46 24.05 1.96.89.06 1.56.83 1.51 1.71-.05.86-.76 1.52-1.61 1.52zm72.61 1.22c-.88 0-1.6-.71-1.61-1.59-.02-.9.69-1.62 1.58-1.64 7.75-.14 15.89-.34 24.21-.62.92-.06 1.63.68 1.66 1.56.03.9-.67 1.64-1.56 1.67-8.33.28-16.49.48-24.25.62h-.03zm-24.23.18h-.01c-8.4-.03-16.55-.14-24.23-.35-.9-.03-1.6-.77-1.57-1.67.02-.88.74-1.58 1.65-1.56 7.66.21 15.79.33 24.16.35a1.615 1.615 0 0 1 0 3.23zM1208.11 1711.05l198.74-112.62-181.29 10.71 13.99 30.62-37.45 41.48z"/><path class="fil10" d="m1406.85 1598.43-208.26 38.16-151.68 105.35zM1225.56 1609.14l181.29-10.71-189.64-55.58z"/><path class="fil4" d="M1401.27 2048.94h-300.35c-16.79 0-30.39-13.6-30.39-30.38v-81.91c0-16.77 13.6-30.37 30.39-30.37h300.35c16.78 0 30.37 13.6 30.37 30.37v81.91c0 16.78-13.59 30.38-30.37 30.38z"/><path class="fil5" d="M1340.17 1941.74h-226.24c-2.54 0-4.6-2.06-4.6-4.58 0-2.53 2.06-4.6 4.6-4.6h226.24c2.52 0 4.6 2.07 4.6 4.6 0 2.52-2.08 4.58-4.6 4.58zM1154.05 1961.57h-40.12c-2.54 0-4.6-2.08-4.6-4.6 0-2.52 2.06-4.6 4.6-4.6h40.12c2.53 0 4.59 2.08 4.59 4.6 0 2.52-2.06 4.6-4.59 4.6zM1280.46 1961.57h-110.55c-2.53 0-4.6-2.08-4.6-4.6 0-2.52 2.07-4.6 4.6-4.6h110.55c2.52 0 4.58 2.08 4.58 4.6 0 2.52-2.06 4.6-4.58 4.6zM1340.17 1998.26h-226.24c-2.54 0-4.6-2.08-4.6-4.6 0-2.52 2.06-4.6 4.6-4.6h226.24c2.52 0 4.6 2.08 4.6 4.6 0 2.52-2.08 4.6-4.6 4.6zM1196.04 2018.07h-82.11c-2.54 0-4.6-2.08-4.6-4.6 0-2.52 2.06-4.6 4.6-4.6h82.11c2.53 0 4.59 2.08 4.59 4.6 0 2.52-2.06 4.6-4.59 4.6zM1295.95 2018.07h-82.12c-2.52 0-4.58-2.08-4.58-4.6 0-2.52 2.06-4.6 4.58-4.6h82.12c2.54 0 4.6 2.08 4.6 4.6 0 2.52-2.06 4.6-4.6 4.6z"/><path d="M1971.18 1390.11c0 61.5-49.86 111.36-111.36 111.36-61.51 0-111.36-49.86-111.36-111.36s49.85-111.36 111.36-111.36c61.5 0 111.36 49.86 111.36 111.36z" style="fill:#61bd6b"/><path style="fill:#fff" d="m1898.8 1334.47-62.58 88.41-17.67-24.12-20.61 20.61 32.49 23.81 7.27 5.33 5.32-6.08 78.67-89.92z"/></g></svg>